<svg xmlns="http://www.w3.org/2000/svg" width="1400" height="720" viewBox="0 0 1400 720">
<rect width="1400" height="720" fill="#0b1220"/>
<text x="70" y="70" fill="#f4f7fb" font-family="Arial" font-size="34" font-weight="700">PROJECT 2 — SOC INVESTIGATION LAB TOPOLOGY</text>
<text x="70" y="105" fill="#9fb5d6" font-family="Arial" font-size="18">Isolated VMware environment for authorized reconnaissance, exploitation and detection practice</text>
<rect x="60" y="150" width="1280" height="500" rx="24" fill="#111b2e" stroke="#496284" stroke-width="2"/>
<rect x="100" y="210" width="330" height="190" rx="18" fill="#101a2c" stroke="#35baf6" stroke-width="3"/>
<text x="130" y="255" fill="#59c7ff" font-family="Arial" font-size="23" font-weight="700">KALI LINUX — ATTACKER</text>
<text x="130" y="300" fill="#ffffff" font-family="Arial" font-size="28" font-weight="700">192.168.200.10</text>
<text x="130" y="340" fill="#c8d3e5" font-family="Arial" font-size="18">Nmap reconnaissance</text>
<text x="130" y="370" fill="#c8d3e5" font-family="Arial" font-size="18">Controlled Metasploit exploitation</text>
<rect x="535" y="210" width="330" height="190" rx="18" fill="#101a2c" stroke="#f3b83f" stroke-width="3"/>
<text x="565" y="255" fill="#ffd05b" font-family="Arial" font-size="23" font-weight="700">METASPLOITABLE 2 — TARGET</text>
<text x="565" y="300" fill="#ffffff" font-family="Arial" font-size="28" font-weight="700">192.168.200.100</text>
<text x="565" y="340" fill="#c8d3e5" font-family="Arial" font-size="18">vsFTPd 2.3.4 / TCP 21</text>
<text x="565" y="370" fill="#c8d3e5" font-family="Arial" font-size="18">Backdoor shell / TCP 6200</text>
<rect x="970" y="210" width="300" height="190" rx="18" fill="#101a2c" stroke="#5ee39b" stroke-width="3"/>
<text x="1000" y="255" fill="#6ee8a6" font-family="Arial" font-size="23" font-weight="700">SECURITY ONION</text>
<text x="1000" y="300" fill="#ffffff" font-family="Arial" font-size="28" font-weight="700">192.168.117.150</text>
<text x="1000" y="340" fill="#c8d3e5" font-family="Arial" font-size="18">Zeek · Suricata · PCAP</text>
<text x="1000" y="370" fill="#c8d3e5" font-family="Arial" font-size="18">Detection / investigation</text>
<line x1="430" y1="305" x2="535" y2="305" stroke="#6fa8ff" stroke-width="5"/><polygon points="535,305 515,294 515,316" fill="#6fa8ff"/>
<text x="455" y="285" fill="#9fb5d6" font-family="Arial" font-size="17">VMnet2</text>
<line x1="865" y1="305" x2="970" y2="305" stroke="#6ee8a6" stroke-width="5"/><polygon points="970,305 950,294 950,316" fill="#6ee8a6"/>
<text x="888" y="285" fill="#9fb5d6" font-family="Arial" font-size="17">Monitored traffic</text>
<rect x="100" y="465" width="1170" height="125" rx="15" fill="#16233b" stroke="#344a6b"/>
<text x="130" y="505" fill="#ffffff" font-family="Arial" font-size="20" font-weight="700">Telemetry correlation</text>
<text x="130" y="545" fill="#c8d3e5" font-family="Arial" font-size="18">Nmap → Metasploit → Root shell → PCAP → Zeek → Suricata → HTTP/File activity</text>
<text x="130" y="575" fill="#9fb5d6" font-family="Arial" font-size="16">Lab scope: controlled activity against systems owned/authorized for security testing.</text>
</svg>
